<?xml version="1.0" encoding="UTF-8"?>
<svg width="400px" height="400px" viewBox="0 0 400 400" version="1.1" xmlns="http://www.w3.org/2000/svg" xmlns:xlink="http://www.w3.org/1999/xlink">
    <!-- Generator: Sketch 51.3 (57544) - http://www.bohemiancoding.com/sketch -->
    <title>Mark/CoinSummer-Mark-Color</title>
    <desc>Created with Sketch.</desc>
    <defs></defs>
    <g id="Mark/CoinSummer-Mark-Color" stroke="none" stroke-width="1" fill="none" fill-rule="evenodd">
        <g id="Mark">
            <path d="M199.894921,105.922857 C212.866349,105.922857 225.21873,108.564127 236.469524,113.30381 C237.57746,113.770476 238.850476,113.360952 239.453651,112.316508 L258.621905,79.1196825 C259.323492,77.9038095 258.844127,76.3292063 257.574286,75.7355556 C240.034603,67.5514286 220.491746,62.9673016 199.894921,62.9673016 C179.269524,62.9673016 159.704444,67.5673016 142.145714,75.7704762 C140.875873,76.3609524 140.399683,77.9387302 141.098095,79.1514286 L160.266349,112.345079 C160.866349,113.392698 162.14254,113.799048 163.253651,113.332381 C174.520317,108.576825 186.894921,105.922857 199.894921,105.922857" id="Fill-16" fill="#003BDE"></path>
            <path d="M62.971746,199.889841 C62.971746,201.623175 63.0161905,203.353333 63.0892063,205.083492 C63.1653968,206.842222 65.0796825,207.893016 66.6288889,207.058095 C77.2034921,201.34381 88.708254,195.962857 104.42254,192.886667 C105.45746,192.683492 106.238413,191.826349 106.330476,190.772381 C108.724127,164.289841 122.301905,140.962857 142.355873,125.50254 C143.305079,124.772381 143.58127,123.470794 142.98127,122.435873 L123.844762,89.2866667 C123.136825,88.0612698 121.511429,87.6930159 120.362222,88.5184127 C85.6479365,113.37873 62.971746,154.029524 62.971746,199.889841" id="Fill-17" fill="#003BDE"></path>
            <path d="M207.704444,210.712381 C223.209206,219.350476 237.945714,227.51873 265.904444,228.534603 C266.904444,228.572698 267.869524,227.975873 268.253651,227.052063 C271.913968,218.252063 273.847302,208.747302 273.847302,199.16 C273.847302,158.785397 240.672698,125.937778 199.894921,125.937778 C163.107619,125.937778 132.526667,152.67746 126.891746,187.550476 C126.653651,189.023492 127.853651,190.331429 129.339365,190.293333 C130.809206,190.255238 132.310794,190.23619 133.847302,190.23619 C170.939365,190.23619 189.628254,200.645714 207.704444,210.712381" id="Fill-18" fill="#003BDE"></path>
            <path d="M335.937778,210.712381 C336.080635,210.633016 336.220317,210.553651 336.363175,210.474286 C336.633016,206.950476 336.817143,203.417143 336.817143,199.890159 C336.817143,154.00127 314.115556,113.328254 279.366349,88.4711111 C278.213968,87.6488889 276.591746,88.0171429 275.88381,89.2393651 L256.747302,122.388571 C256.147302,123.426667 256.423492,124.728254 257.372698,125.458413 C279.553651,142.528254 293.861587,169.217143 293.861587,199.16 C293.861587,207.60127 292.699683,215.998095 290.445714,224.08381 C289.979048,225.756825 291.334603,227.388571 293.052063,227.121905 C311.623492,224.229841 323.534603,217.620317 335.937778,210.712381" id="Fill-19" fill="#003BDE"></path>
            <path d="M42.9568254,199.889841 C42.9568254,146.473968 69.7853968,99.2104762 110.674286,70.8549206 C111.693333,70.1469841 112.010794,68.788254 111.391746,67.7152381 L92.2806349,34.6168254 C91.5853968,33.42 90.0044444,33.0390476 88.8520635,33.8136508 C35.328254,69.7152381 0.00126984127,130.73746 0.00126984127,199.889841 C0.00126984127,208.86127 0.623492063,217.689841 1.77904762,226.353333 C1.94412698,227.591429 3.06793651,228.505714 4.31238095,228.435873 C20.6869841,227.569206 32.4107937,224.172381 42.5409524,219.715238 C43.4933333,219.29619 44.0393651,218.30254 43.928254,217.267619 C43.2869841,211.512063 42.9568254,205.699365 42.9568254,199.889841" id="Fill-20" fill="#003BDE"></path>
            <path d="M199.894921,42.9514286 C224.275873,42.9514286 247.352063,48.5736508 267.955238,58.5355556 C269.082222,59.0784127 270.421905,58.6784127 271.047302,57.595873 L290.164762,24.4879365 C290.850476,23.2942857 290.402857,21.7450794 289.167937,21.1260317 C262.275873,7.64031746 231.971111,-0.000952380952 199.894921,-0.000952380952 C167.793333,-0.000952380952 137.46,7.65301587 110.552063,21.1609524 C109.320317,21.78 108.869524,23.3228571 109.558413,24.5196825 L128.672698,57.6307937 C129.30127,58.7133333 130.640952,59.1133333 131.764762,58.5704762 C152.38381,48.5831746 175.491746,42.9514286 199.894921,42.9514286" id="Fill-21" fill="#003BDE"></path>
            <path d="M307.44381,34.5777778 L288.335873,67.6730159 C287.713651,68.7492063 288.034286,70.1047619 289.053333,70.8126984 C329.973968,99.1650794 356.831111,146.447619 356.831111,199.888889 C356.831111,199.95873 356.827937,200.022222 356.827937,200.092063 C367.570794,195.51746 380.227937,191.914286 397.154921,190.701587 C398.466032,190.603175 399.500952,189.479365 399.424762,188.168254 C395.685079,123.844444 361.383492,67.6253968 310.869206,33.7714286 C309.72,33 308.139048,33.3746032 307.44381,34.5777778" id="Fill-22" fill="#003BDE"></path>
            <path d="M271.82254,248.674603 C234.727302,248.674603 216.038413,238.265079 197.962222,228.198413 C181.393968,218.966667 165.743175,210.249206 133.847937,210.249206 C101.955873,210.249206 86.3050794,218.966667 69.74,228.198413 C53.9177778,237.007937 37.5844444,246.05873 8.89555556,248.18254 C7.39396825,248.293651 6.31460317,249.734921 6.70190476,251.188889 C11.0034921,267.363492 17.3019048,282.725397 25.292381,297.02381 C25.8288889,297.988889 26.9907937,298.474603 28.0542857,298.188889 C40.6574603,294.804762 50.14,289.58254 60.0003175,284.087302 C78.0701587,274.020635 96.7590476,263.611111 133.847937,263.611111 C170.94,263.611111 189.625714,274.020635 207.705079,284.087302 C224.273333,293.319048 239.927302,302.039683 271.82254,302.039683 C303.717778,302.039683 319.371746,293.319048 335.936825,284.087302 C349.889206,276.319048 364.292381,268.319048 387.384444,265.096825 C388.286032,264.969841 389.06381,264.353968 389.352698,263.493651 C394.714603,247.573016 398.155873,230.78254 399.324127,213.373016 C399.42254,211.912698 398.155873,210.677778 396.69873,210.804762 C373.279683,212.846032 359.803492,220.328571 345.679683,228.198413 C327.603492,238.265079 308.914603,248.674603 271.82254,248.674603" id="Fill-23" fill="#00EBE9"></path>
            <path d="M271.82254,322.053016 C234.727302,322.053016 216.038413,311.640317 197.962222,301.576825 C181.393968,292.345079 165.743175,283.627619 133.847937,283.627619 C101.959048,283.627619 86.308254,292.345079 69.7431746,301.576825 C60.971746,306.459365 51.955873,311.427619 40.708254,315.259365 C39.1653968,315.786349 38.524127,317.65619 39.4987302,318.967302 C46.8003175,328.786349 54.955873,337.929206 63.8955556,346.246667 C64.6511111,346.951429 65.7780952,347.087937 66.6860317,346.595873 C82.9146032,337.824444 101.286032,329.795873 133.847937,329.795873 C170.94,329.795873 189.625714,340.211746 207.705079,350.275238 C224.273333,359.506984 239.927302,368.224444 271.82254,368.224444 C296.108254,368.224444 310.787619,363.173651 322.797143,357.291111 C322.962222,357.205397 323.120952,357.106984 323.266984,356.992698 C345.632063,339.392698 364.187619,317.160952 377.406667,291.716508 C378.378095,289.843492 376.546349,287.722857 374.527302,288.335556 C363.397143,291.719683 354.689206,296.554603 345.679683,301.576825 C327.603492,311.640317 308.917778,322.053016 271.82254,322.053016" id="Fill-24" fill="#00EBE9"></path>
            <path d="M133.848254,349.812381 C112.051429,349.812381 97.8419048,353.885397 85.7434921,359.412381 C84.0577778,360.18381 83.8228571,362.510794 85.3371429,363.574286 C117.800635,386.367937 157.302222,399.78381 199.895873,399.78381 C218.984762,399.78381 237.454603,397.075873 254.949841,392.044127 C257.451429,391.323492 257.099048,387.637778 254.511746,387.374286 C228.448254,384.704444 212.978413,376.123492 197.96254,367.761587 C181.394286,358.529841 165.743492,349.812381 133.848254,349.812381" id="Fill-25" fill="#00EBE9"></path>
        </g>
    </g>
</svg>